<?xml version="1.0" encoding="UTF-8" standalone="no"?>
<svg width="150px" height="178px" viewBox="0 0 150 178" version="1.1" xmlns="http://www.w3.org/2000/svg" xmlns:xlink="http://www.w3.org/1999/xlink" xmlns:sketch="http://www.bohemiancoding.com/sketch/ns">
    <!-- Generator: Sketch 3.0.4 (8054) - http://www.bohemiancoding.com/sketch -->
    <title>Slice 2</title>
    <desc>Created with Sketch.</desc>
    <defs></defs>
    <g id="Page-1" stroke="none" stroke-width="1" fill="none" fill-rule="evenodd" sketch:type="MSPage">
        <g id="lintci-logo" sketch:type="MSLayerGroup">
            <rect id="Rectangle-1" stroke="#979797" fill="#797C7B" sketch:type="MSShapeGroup" x="-0.100006104" y="0" width="150.1" height="177.5"></rect>
            <path d="M105.786994,98.938 C101.503994,111.861 89.3129939,121.214 74.9709939,121.214 C57.0709939,121.214 42.5089939,106.651 42.5089939,88.752 C42.5089939,70.854 57.0709939,56.291 74.9709939,56.291 C88.6489939,56.291 100.369994,64.799 105.139994,76.797 C101.607994,77.977 99.0599939,81.305 99.0599939,85.233 L99.0599939,90.317 C99.0599939,94.482 101.923994,97.967 105.786994,98.938 L105.786994,98.938 Z M74.9709939,130.17 C52.0959939,130.17 33.5519939,111.627 33.5519939,88.752 C33.5519939,65.877 52.0959939,47.334 74.9709939,47.334 C93.4609939,47.334 109.120994,59.451 114.444994,76.178 L111.970994,76.178 C106.721994,60.778 92.1239939,49.666 74.9709939,49.666 C53.4179939,49.666 35.8839939,67.199 35.8839939,88.752 C35.8839939,110.305 53.4179939,127.838 74.9709939,127.838 C92.1239939,127.838 106.721994,116.726 111.970994,101.324 L114.444994,101.324 C109.120994,118.053 93.4609939,130.17 74.9709939,130.17 L74.9709939,130.17 Z M17.0969939,20.516 L17.0969939,17.557 C17.0969939,16.943 17.5949939,16.447 18.2059939,16.447 L44.0929939,16.447 C44.7049939,16.447 45.2029939,16.943 45.2029939,17.557 L45.2029939,20.516 C45.2029939,21.129 44.7049939,21.624 44.0929939,21.624 L18.2059939,21.624 C17.5949939,21.624 17.0969939,21.129 17.0969939,20.516 L17.0969939,20.516 Z M64.3959939,15.24 C65.9289939,15.24 67.1709939,16.482 67.1709939,18.014 C67.1709939,19.545 65.9289939,20.786 64.3959939,20.786 C62.8659939,20.786 61.6239939,19.545 61.6239939,18.014 C61.6239939,16.482 62.8659939,15.24 64.3959939,15.24 L64.3959939,15.24 Z M79.3709939,15.795 C80.9019939,15.795 82.1439939,17.037 82.1439939,18.568 C82.1439939,20.1 80.9019939,21.34 79.3709939,21.34 C77.8389939,21.34 76.5979939,20.1 76.5979939,18.568 C76.5979939,17.037 77.8389939,15.795 79.3709939,15.795 L79.3709939,15.795 Z M148.929994,0 L1.0109939,0 C0.397993896,0 -0.100006104,0.496 -0.100006104,1.109 L-0.100006104,176.395 C-0.100006104,177.008 0.397993896,177.504 1.0109939,177.504 L148.929994,177.504 C149.543994,177.504 150.039994,177.008 150.039994,176.395 L150.039994,1.109 C150.039994,0.496 149.543994,0 148.929994,0 L148.929994,0 Z" id="Fill-55" fill="#F8F8F7" sketch:type="MSShapeGroup"></path>
        </g>
    </g>
</svg>