<?xml version="1.0" encoding="UTF-8" standalone="no"?>
<svg width="326px" height="325px" viewBox="0 0 326 325" version="1.1" xmlns="http://www.w3.org/2000/svg" xmlns:xlink="http://www.w3.org/1999/xlink" xmlns:sketch="http://www.bohemiancoding.com/sketch/ns">
    <!-- Generator: Sketch 3.0.4 (8054) - http://www.bohemiancoding.com/sketch -->
    <title>Slice 2</title>
    <desc>Created with Sketch.</desc>
    <defs></defs>
    <g id="Page-1" stroke="none" stroke-width="1" fill="none" fill-rule="evenodd" sketch:type="MSPage">
        <g id="lintci-logo" sketch:type="MSLayerGroup">
            <path d="M325.548,162.706 C325.548,252.48 252.773,325.255 162.998,325.255 C73.224,325.255 0.449,252.48 0.449,162.706 C0.449,72.933 73.224,0.155 162.998,0.155 C252.773,0.155 325.548,72.933 325.548,162.706" id="Fill-53" fill="#797C7B" sketch:type="MSShapeGroup"></path>
            <path d="M166.732,324.966 L89.884,248.119 L134.265,194.204 C104.1,157.851 125.759,121.081 162.507,121.081 C170.845,121.081 179.96,122.974 189.422,127.194 L232.623,74.71 L325.242,167.079 C322.836,253.4 253.136,322.896 166.732,324.966" id="Fill-54" fill="#535656" sketch:type="MSShapeGroup"></path>
            <path d="M193.815,172.892 C189.532,185.815 177.341,195.168 162.999,195.168 C145.099,195.168 130.537,180.605 130.537,162.706 C130.537,144.808 145.099,130.245 162.999,130.245 C176.677,130.245 188.398,138.753 193.168,150.751 C189.636,151.931 187.088,155.259 187.088,159.187 L187.088,164.271 C187.088,168.436 189.952,171.921 193.815,172.892 L193.815,172.892 Z M162.999,204.124 C140.124,204.124 121.58,185.581 121.58,162.706 C121.58,139.831 140.124,121.288 162.999,121.288 C181.489,121.288 197.149,133.405 202.473,150.132 L199.999,150.132 C194.75,134.732 180.152,123.62 162.999,123.62 C141.446,123.62 123.912,141.153 123.912,162.706 C123.912,184.259 141.446,201.792 162.999,201.792 C180.152,201.792 194.75,190.68 199.999,175.278 L202.473,175.278 C197.149,192.007 181.489,204.124 162.999,204.124 L162.999,204.124 Z M105.125,94.47 L105.125,91.511 C105.125,90.897 105.623,90.401 106.234,90.401 L132.121,90.401 C132.733,90.401 133.231,90.897 133.231,91.511 L133.231,94.47 C133.231,95.083 132.733,95.578 132.121,95.578 L106.234,95.578 C105.623,95.578 105.125,95.083 105.125,94.47 L105.125,94.47 Z M152.424,89.194 C153.957,89.194 155.199,90.436 155.199,91.968 C155.199,93.499 153.957,94.74 152.424,94.74 C150.894,94.74 149.652,93.499 149.652,91.968 C149.652,90.436 150.894,89.194 152.424,89.194 L152.424,89.194 Z M167.399,89.749 C168.93,89.749 170.172,90.991 170.172,92.522 C170.172,94.054 168.93,95.294 167.399,95.294 C165.867,95.294 164.626,94.054 164.626,92.522 C164.626,90.991 165.867,89.749 167.399,89.749 L167.399,89.749 Z M236.958,73.954 L89.039,73.954 C88.426,73.954 87.928,74.45 87.928,75.063 L87.928,250.349 C87.928,250.962 88.426,251.458 89.039,251.458 L236.958,251.458 C237.572,251.458 238.068,250.962 238.068,250.349 L238.068,75.063 C238.068,74.45 237.572,73.954 236.958,73.954 L236.958,73.954 Z" id="Fill-55" fill="#F8F8F7" sketch:type="MSShapeGroup"></path>
        </g>
    </g>
</svg>