<?xml version="1.0" encoding="UTF-8" standalone="no"?>
<svg width="506px" height="643px" viewBox="0 0 506 643" version="1.1" xmlns="http://www.w3.org/2000/svg" xmlns:xlink="http://www.w3.org/1999/xlink" xmlns:sketch="http://www.bohemiancoding.com/sketch/ns">
    <!-- Generator: Sketch 3.0.4 (8054) - http://www.bohemiancoding.com/sketch -->
    <title>Slice 2</title>
    <desc>Created with Sketch.</desc>
    <defs></defs>
    <g id="Page-1" stroke="none" stroke-width="1" fill="none" fill-rule="evenodd" sketch:type="MSPage">
        <g id="lintci-logo" sketch:type="MSLayerGroup">
            <path d="M374.666,388.585 C392.935,386.021 400.621,368.155 398.193,334.792 C381.978,345.521 360.439,365.378 374.666,388.585" id="Fill-4" fill="#375D81" sketch:type="MSShapeGroup"></path>
            <path d="M291.417,53.763 C310.273,58.497 339.462,61.007 347.001,34.849 C332.785,23.091 314.412,29.466 291.417,53.763" id="Fill-5" fill="#375D81" sketch:type="MSShapeGroup"></path>
            <path d="M330.025,25.218 C324.626,-1.464 295.333,-1.329 276.156,1.866 C297.105,27.942 314.902,35.784 330.025,25.218" id="Fill-6" fill="#375D81" sketch:type="MSShapeGroup"></path>
            <path d="M47.787,224.931 C74.638,220.454 75.505,191.169 72.972,171.894 C46.193,191.938 37.744,209.454 47.787,224.931" id="Fill-7" fill="#375D81" sketch:type="MSShapeGroup"></path>
            <path d="M377.019,44.495 C380.656,17.517 352.933,8.05 333.767,4.786 C345.021,36.286 359.269,49.524 377.019,44.495" id="Fill-8" fill="#375D81" sketch:type="MSShapeGroup"></path>
            <path d="M325.429,406.513 C343.591,409.741 356.441,395.144 364.488,362.677 C345.746,367.843 319.107,380.034 325.429,406.513" id="Fill-9" fill="#375D81" sketch:type="MSShapeGroup"></path>
            <path d="M61.57,132.11 C86.523,142.991 103.212,118.913 111.593,101.372 C78.214,103.581 61.585,113.661 61.57,132.11" id="Fill-10" fill="#375D81" sketch:type="MSShapeGroup"></path>
            <path d="M87.642,135.618 C55.628,145.317 41.708,158.897 45.865,176.872 C72.632,181.827 83.445,154.599 87.642,135.618" id="Fill-11" fill="#375D81" sketch:type="MSShapeGroup"></path>
            <path d="M182.568,406.513 C188.89,380.034 162.25,367.843 143.507,362.677 C151.556,395.144 164.406,409.741 182.568,406.513" id="Fill-12" fill="#375D81" sketch:type="MSShapeGroup"></path>
            <path d="M133.332,388.585 C147.558,365.378 126.019,345.521 109.804,334.792 C107.376,368.155 115.06,386.021 133.332,388.585" id="Fill-13" fill="#375D81" sketch:type="MSShapeGroup"></path>
            <path d="M443.013,112.894 C460.117,91.714 441.324,69.241 426.632,56.511 C419.916,89.28 425.228,107.987 443.013,112.894" id="Fill-14" fill="#375D81" sketch:type="MSShapeGroup"></path>
            <path d="M446.427,132.11 C446.412,113.661 429.781,103.581 396.402,101.372 C404.785,118.913 421.474,142.991 446.427,132.11" id="Fill-15" fill="#375D81" sketch:type="MSShapeGroup"></path>
            <path d="M420.355,135.618 C424.552,154.599 435.365,181.827 462.132,176.872 C466.289,158.897 452.369,145.317 420.355,135.618" id="Fill-16" fill="#375D81" sketch:type="MSShapeGroup"></path>
            <path d="M414.062,74.831 C425.666,50.204 402.087,32.819 384.796,23.931 C386.029,57.358 395.623,74.274 414.062,74.831" id="Fill-17" fill="#375D81" sketch:type="MSShapeGroup"></path>
            <path d="M419.884,300.487 C407.066,315.106 391.517,339.935 411.355,358.577 C428.302,351.29 431.009,332.032 419.884,300.487" id="Fill-18" fill="#375D81" sketch:type="MSShapeGroup"></path>
            <path d="M467.986,254.323 C494.425,247.839 493.089,218.575 489.113,199.544 C463.916,221.546 456.81,239.649 467.986,254.323" id="Fill-19" fill="#375D81" sketch:type="MSShapeGroup"></path>
            <path d="M437.882,216.923 C433.927,235.956 432.617,265.224 459.062,271.685 C470.224,256.993 463.101,238.901 437.882,216.923" id="Fill-20" fill="#375D81" sketch:type="MSShapeGroup"></path>
            <path d="M460.21,224.931 C470.251,209.454 461.804,191.938 435.021,171.894 C432.49,191.169 433.359,220.454 460.21,224.931" id="Fill-21" fill="#375D81" sketch:type="MSShapeGroup"></path>
            <path d="M389.904,59.153 C380.322,43.39 360.875,43.396 331.193,58.819 C347.457,69.47 374.214,81.399 389.904,59.153" id="Fill-22" fill="#375D81" sketch:type="MSShapeGroup"></path>
            <path d="M366.05,74.673 C378.347,89.731 400.261,109.175 421.929,92.692 C417.544,74.772 399.001,68.917 366.05,74.673" id="Fill-23" fill="#375D81" sketch:type="MSShapeGroup"></path>
            <path d="M467.822,206.96 C493.705,198.522 490.199,169.44 484.818,150.759 C461.326,174.571 455.585,193.151 467.822,206.96" id="Fill-24" fill="#375D81" sketch:type="MSShapeGroup"></path>
            <path d="M463.152,157.38 C484.603,140.618 471.378,114.478 459.945,98.755 C445.992,129.155 446.937,148.579 463.152,157.38" id="Fill-25" fill="#375D81" sketch:type="MSShapeGroup"></path>
            <path d="M439.876,317.681 C455.113,307.28 454.082,287.862 437.117,259.032 C427.337,275.839 416.833,303.187 439.876,317.681" id="Fill-26" fill="#375D81" sketch:type="MSShapeGroup"></path>
            <path d="M344.947,406.532 C362.785,427.097 388.214,412.552 403.33,400.327 C372.255,387.95 352.906,389.89 344.947,406.532" id="Fill-27" fill="#375D81" sketch:type="MSShapeGroup"></path>
            <path d="M182.865,381.089 C196.044,411.835 211.082,424.165 228.484,418.048 C230.451,390.897 202.195,383.161 182.865,381.089" id="Fill-28" fill="#375D81" sketch:type="MSShapeGroup"></path>
            <path d="M163.05,406.532 C155.091,389.89 135.742,387.95 104.667,400.327 C119.785,412.552 145.212,427.097 163.05,406.532" id="Fill-29" fill="#375D81" sketch:type="MSShapeGroup"></path>
            <path d="M150.605,424.513 C167.498,434.138 194.941,444.39 209.228,421.218 C198.687,406.075 179.279,407.282 150.605,424.513" id="Fill-30" fill="#375D81" sketch:type="MSShapeGroup"></path>
            <path d="M61.193,358.528 C71.771,374.841 91.431,396.56 114.769,382.548 C112.371,364.257 94.576,356.405 61.193,358.528" id="Fill-31" fill="#375D81" sketch:type="MSShapeGroup"></path>
            <path d="M80.328,347.864 C82.83,329.585 67.732,317.327 34.97,310.585 C40.878,329.106 54.123,355.235 80.328,347.864" id="Fill-32" fill="#375D81" sketch:type="MSShapeGroup"></path>
            <path d="M54.16,304.042 C60.117,286.581 47.652,271.659 16.787,258.761 C19.037,278.073 27.029,306.255 54.16,304.042" id="Fill-33" fill="#375D81" sketch:type="MSShapeGroup"></path>
            <path d="M253.998,416.343 C242.222,416.343 232.671,422.755 232.671,430.671 C232.671,438.583 242.222,444.999 253.998,444.999 C265.773,444.999 275.322,438.583 275.322,430.671 C275.322,422.755 265.773,416.343 253.998,416.343" id="Fill-34" fill="#375D81" sketch:type="MSShapeGroup"></path>
            <path d="M40.007,254.323 C51.187,239.649 44.082,221.546 18.884,199.544 C14.908,218.575 13.57,247.839 40.007,254.323" id="Fill-35" fill="#375D81" sketch:type="MSShapeGroup"></path>
            <path d="M453.837,304.042 C480.968,306.255 488.962,278.073 491.21,258.761 C460.345,271.659 447.878,286.581 453.837,304.042" id="Fill-36" fill="#375D81" sketch:type="MSShapeGroup"></path>
            <path d="M393.226,382.548 C416.566,396.56 436.226,374.841 446.804,358.528 C413.419,356.405 395.626,364.257 393.226,382.548" id="Fill-37" fill="#375D81" sketch:type="MSShapeGroup"></path>
            <path d="M427.667,347.864 C453.875,355.235 467.119,329.106 473.029,310.585 C440.265,317.327 425.167,329.585 427.667,347.864" id="Fill-38" fill="#375D81" sketch:type="MSShapeGroup"></path>
            <path d="M48.935,271.685 C75.38,265.224 74.07,235.956 70.113,216.923 C44.896,238.901 37.771,256.993 48.935,271.685" id="Fill-39" fill="#375D81" sketch:type="MSShapeGroup"></path>
            <path d="M325.132,381.089 C305.8,383.161 277.544,390.897 279.511,418.048 C296.916,424.165 311.951,411.835 325.132,381.089" id="Fill-40" fill="#375D81" sketch:type="MSShapeGroup"></path>
            <path d="M298.769,421.218 C313.058,444.39 340.5,434.138 357.392,424.513 C328.718,407.282 309.31,406.075 298.769,421.218" id="Fill-41" fill="#375D81" sketch:type="MSShapeGroup"></path>
            <path d="M231.837,1.866 C212.664,-1.329 183.369,-1.464 177.972,25.218 C193.095,35.784 210.892,27.942 231.837,1.866" id="Fill-42" fill="#375D81" sketch:type="MSShapeGroup"></path>
            <path d="M174.228,4.786 C155.064,8.05 127.339,17.517 130.978,44.495 C148.728,49.524 162.974,36.286 174.228,4.786" id="Fill-43" fill="#375D81" sketch:type="MSShapeGroup"></path>
            <path d="M118.091,59.153 C133.781,81.399 160.541,69.47 176.806,58.819 C147.121,43.396 127.675,43.39 118.091,59.153" id="Fill-44" fill="#375D81" sketch:type="MSShapeGroup"></path>
            <path d="M216.58,53.763 C193.583,29.466 175.212,23.091 160.996,34.849 C168.535,61.007 197.722,58.497 216.58,53.763" id="Fill-45" fill="#375D81" sketch:type="MSShapeGroup"></path>
            <path d="M68.121,317.681 C91.164,303.187 80.658,275.839 70.88,259.032 C53.914,287.862 52.882,307.28 68.121,317.681" id="Fill-46" fill="#375D81" sketch:type="MSShapeGroup"></path>
            <path d="M96.642,358.577 C116.48,339.935 100.929,315.106 88.113,300.487 C76.986,332.032 79.695,351.29 96.642,358.577" id="Fill-47" fill="#375D81" sketch:type="MSShapeGroup"></path>
            <path d="M40.175,206.96 C52.412,193.151 46.669,174.571 23.179,150.759 C17.8,169.44 14.292,198.522 40.175,206.96" id="Fill-48" fill="#375D81" sketch:type="MSShapeGroup"></path>
            <path d="M44.845,157.38 C61.058,148.579 62.005,129.155 48.052,98.755 C36.619,114.478 23.394,140.618 44.845,157.38" id="Fill-49" fill="#375D81" sketch:type="MSShapeGroup"></path>
            <path d="M81.365,56.511 C66.673,69.241 47.878,91.714 64.984,112.894 C82.767,107.987 88.083,89.28 81.365,56.511" id="Fill-50" fill="#375D81" sketch:type="MSShapeGroup"></path>
            <path d="M123.201,23.931 C105.91,32.819 82.33,50.204 93.935,74.831 C112.375,74.274 121.966,57.358 123.201,23.931" id="Fill-51" fill="#375D81" sketch:type="MSShapeGroup"></path>
            <path d="M141.947,74.673 C108.996,68.917 90.451,74.772 86.068,92.692 C107.736,109.175 129.65,89.731 141.947,74.673" id="Fill-52" fill="#375D81" sketch:type="MSShapeGroup"></path>
            <path d="M416.548,222.706 C416.548,312.48 343.773,385.255 253.998,385.255 C164.224,385.255 91.449,312.48 91.449,222.706 C91.449,132.933 164.224,60.155 253.998,60.155 C343.773,60.155 416.548,132.933 416.548,222.706" id="Fill-53" fill="#375D81" sketch:type="MSShapeGroup"></path>
            <path d="M257.732,384.966 L180.884,308.119 L225.265,254.204 C195.1,217.851 216.759,181.081 253.507,181.081 C261.845,181.081 270.96,182.974 280.422,187.194 L323.623,134.71 L416.242,227.079 C413.836,313.4 344.136,382.896 257.732,384.966" id="Fill-54" fill="#183152" sketch:type="MSShapeGroup"></path>
            <text id="LintCI" sketch:type="MSTextLayer" font-family="ABeeZee" font-size="193" font-weight="normal">
                <tspan x="0" y="591.723" fill="#183152">Lint</tspan>
                <tspan x="337.75" y="591.723" fill="#375D81">CI</tspan>
            </text>
            <path d="M284.815,232.892 C280.532,245.815 268.341,255.168 253.999,255.168 C236.099,255.168 221.537,240.605 221.537,222.706 C221.537,204.808 236.099,190.245 253.999,190.245 C267.677,190.245 279.398,198.753 284.168,210.751 C280.636,211.931 278.088,215.259 278.088,219.187 L278.088,224.271 C278.088,228.436 280.952,231.921 284.815,232.892 L284.815,232.892 Z M253.999,264.124 C231.124,264.124 212.58,245.581 212.58,222.706 C212.58,199.831 231.124,181.288 253.999,181.288 C272.489,181.288 288.149,193.405 293.473,210.132 L290.999,210.132 C285.75,194.732 271.152,183.62 253.999,183.62 C232.446,183.62 214.912,201.153 214.912,222.706 C214.912,244.259 232.446,261.792 253.999,261.792 C271.152,261.792 285.75,250.68 290.999,235.278 L293.473,235.278 C288.149,252.007 272.489,264.124 253.999,264.124 L253.999,264.124 Z M196.125,154.47 L196.125,151.511 C196.125,150.897 196.623,150.401 197.234,150.401 L223.121,150.401 C223.733,150.401 224.231,150.897 224.231,151.511 L224.231,154.47 C224.231,155.083 223.733,155.578 223.121,155.578 L197.234,155.578 C196.623,155.578 196.125,155.083 196.125,154.47 L196.125,154.47 Z M243.424,149.194 C244.957,149.194 246.199,150.436 246.199,151.968 C246.199,153.499 244.957,154.74 243.424,154.74 C241.894,154.74 240.652,153.499 240.652,151.968 C240.652,150.436 241.894,149.194 243.424,149.194 L243.424,149.194 Z M258.399,149.749 C259.93,149.749 261.172,150.991 261.172,152.522 C261.172,154.054 259.93,155.294 258.399,155.294 C256.867,155.294 255.626,154.054 255.626,152.522 C255.626,150.991 256.867,149.749 258.399,149.749 L258.399,149.749 Z M327.958,133.954 L180.039,133.954 C179.426,133.954 178.928,134.45 178.928,135.063 L178.928,310.349 C178.928,310.962 179.426,311.458 180.039,311.458 L327.958,311.458 C328.572,311.458 329.068,310.962 329.068,310.349 L329.068,135.063 C329.068,134.45 328.572,133.954 327.958,133.954 L327.958,133.954 Z" id="Fill-55" fill="#F8F8F7" sketch:type="MSShapeGroup"></path>
        </g>
    </g>
</svg>